<?xml version="1.0" standalone="no"?>
<!DOCTYPE svg PUBLIC "-//W3C//DTD SVG 20010904//EN"
 "http://www.w3.org/TR/2001/REC-SVG-20010904/DTD/svg10.dtd">
<svg version="1.0" xmlns="http://www.w3.org/2000/svg"
 width="1200.000000pt" height="1200.000000pt" viewBox="0 0 1200.000000 1200.000000"
 preserveAspectRatio="xMidYMid meet">
<metadata>
Created by potrace 1.16, written by Peter Selinger 2001-2019
</metadata>
<g transform="translate(0.000000,1200.000000) scale(0.100000,-0.100000)"
fill="#000000" stroke="none">
<path d="M3392 9310 c-152 -40 -291 -134 -377 -255 -128 -178 -162 -375 -104
-587 59 -212 233 -388 454 -458 59 -19 100 -23 258 -28 103 -2 187 -9 187 -14
0 -5 -9 -27 -21 -49 -72 -143 -154 -401 -188 -599 -83 -471 -22 -976 168
-1396 22 -51 41 -94 41 -97 0 -2 -62 -7 -137 -10 -232 -8 -352 -56 -494 -197
-73 -73 -94 -101 -132 -180 -25 -52 -50 -119 -56 -148 -14 -69 -14 -226 0
-294 15 -72 81 -210 131 -275 84 -109 222 -197 366 -234 75 -19 131 -19 2582
-17 l2505 3 84 29 c300 105 490 403 452 710 -20 169 -74 279 -196 402 -75 76
-104 98 -175 132 -117 56 -205 72 -395 72 -85 0 -155 4 -155 9 0 5 16 44 36
87 51 112 111 291 144 429 112 469 78 978 -95 1421 -24 62 -53 130 -64 153
-12 22 -21 44 -21 49 0 5 62 12 138 15 154 6 229 24 347 85 94 49 217 172 268
269 103 196 103 438 0 636 -57 109 -183 232 -293 286 -158 77 55 71 -2708 70
-2403 0 -2479 -1 -2550 -19z m293 -175 c166 -44 310 -188 355 -355 7 -25 12
-83 12 -130 -1 -135 -44 -236 -143 -337 -196 -200 -504 -199 -701 0 -198 201
-191 516 16 704 127 117 298 160 461 118z m2575 0 c507 -60 967 -283 1331
-645 132 -131 200 -214 299 -367 332 -509 442 -1120 309 -1715 -36 -165 -119
-394 -191 -530 l-31 -58 -660 0 -660 0 69 49 c269 189 462 493 519 815 19 112
19 294 0 411 -43 268 -163 504 -350 691 -148 149 -310 249 -506 314 -181 60
-183 60 -1321 60 -571 0 -1038 3 -1038 6 0 3 21 29 46 57 52 59 126 206 145
287 18 77 16 232 -5 310 -22 89 -75 193 -136 268 l-51 62 1053 0 c870 0 1075
-3 1178 -15z m2205 1 c127 -33 248 -124 310 -230 60 -102 81 -259 51 -372 -22
-85 -74 -170 -142 -233 -116 -109 -219 -141 -454 -141 l-145 0 -50 77 c-224
347 -569 650 -959 844 l-140 69 740 0 c584 0 749 -3 789 -14z m-3160 -1183
c-289 -193 -491 -502 -550 -840 -19 -110 -19 -316 0 -426 56 -319 226 -599
485 -793 101 -76 295 -175 400 -203 191 -51 179 -51 1291 -51 572 0 1039 -3
1039 -6 0 -3 -20 -29 -45 -57 -56 -64 -118 -181 -141 -267 -23 -85 -23 -242
-1 -330 23 -89 76 -193 136 -267 l51 -63 -1055 0 c-1051 0 -1151 3 -1330 36
-595 109 -1137 471 -1476 986 -74 112 -176 315 -224 443 -141 377 -177 822
-99 1220 36 183 113 404 200 577 l34 68 662 0 663 0 -40 -27z m960 -7 c187
-48 355 -145 494 -284 101 -100 154 -175 217 -305 95 -198 128 -455 85 -662
-79 -382 -329 -672 -696 -810 -132 -49 -260 -68 -415 -62 -282 13 -506 112
-711 316 -145 145 -234 297 -287 491 -22 84 -26 115 -26 265 -1 195 15 277 81
431 78 179 225 358 382 464 129 87 304 156 457 180 106 16 307 5 419 -24z
m-2278 -2414 c206 -309 502 -579 838 -764 55 -30 131 -68 168 -84 l68 -29
-737 -3 c-810 -2 -803 -3 -908 58 -164 94 -256 250 -256 434 0 135 38 232 129
330 57 60 113 99 182 127 81 32 120 37 289 38 l155 0 72 -107z m4539 97 c167
-30 324 -163 380 -321 95 -269 -65 -571 -341 -643 -354 -92 -685 225 -610 582
30 141 135 273 267 337 109 52 195 65 304 45z"/>
<path d="M3250 3235 l0 -298 108 5 c159 7 225 44 273 152 33 73 33 209 0 282
-48 108 -114 145 -273 152 l-108 5 0 -298z m230 183 c53 -37 75 -90 75 -183 0
-67 -4 -87 -25 -125 -30 -54 -76 -80 -142 -80 l-48 0 0 205 0 205 54 0 c39 0
62 -6 86 -22z"/>
<path d="M6450 3235 l0 -295 45 0 45 0 0 130 0 130 100 0 100 0 0 -130 0 -130
45 0 45 0 0 295 0 295 -45 0 -45 0 0 -120 0 -120 -100 0 -100 0 0 120 0 120
-45 0 -45 0 0 -295z"/>
<path d="M4007 3366 c-85 -31 -127 -101 -127 -211 0 -47 7 -84 19 -110 36 -80
120 -123 210 -110 122 18 179 102 168 248 -5 77 -38 137 -92 169 -43 25 -131
32 -178 14z m123 -89 c52 -26 75 -121 46 -191 -18 -43 -51 -66 -96 -66 -67 0
-110 53 -110 135 0 105 77 164 160 122z"/>
<path d="M4696 3370 c-16 -5 -39 -19 -52 -31 l-24 -22 0 26 c0 25 -3 27 -45
27 l-45 0 0 -215 0 -215 45 0 c42 0 45 2 46 28 0 15 2 70 3 122 4 146 4 149
31 175 18 19 35 25 65 25 30 0 47 -6 65 -25 24 -23 25 -28 25 -175 l0 -150 49
0 50 0 -3 164 c-3 178 -11 207 -66 247 -30 22 -103 32 -144 19z"/>
<path d="M5286 3370 c-42 -13 -83 -56 -103 -109 -22 -57 -22 -171 0 -222 39
-88 138 -130 217 -91 l40 19 0 -24 c0 -54 -51 -93 -120 -93 -36 0 -36 -1 -7
-46 21 -34 24 -35 67 -29 55 8 96 31 124 68 20 27 21 43 24 278 l3 249 -45 0
c-33 0 -46 -4 -46 -14 0 -11 -8 -10 -37 5 -40 20 -70 23 -117 9z m128 -101
c25 -19 26 -25 26 -114 0 -89 -1 -95 -26 -114 -29 -23 -74 -27 -105 -11 -65
35 -66 212 -2 249 29 17 79 12 107 -10z"/>
<path d="M8536 3370 c-16 -5 -39 -19 -52 -31 l-24 -22 0 26 c0 25 -3 27 -45
27 l-45 0 0 -215 0 -215 45 0 c42 0 45 2 46 28 0 15 2 70 3 122 4 146 4 149
31 175 18 19 35 25 65 25 30 0 47 -6 65 -25 24 -23 25 -28 25 -175 l0 -150 49
0 50 0 -3 164 c-3 178 -11 207 -66 247 -30 22 -103 32 -144 19z"/>
<path d="M7089 3323 c10 -27 46 -123 81 -215 l62 -167 -31 -80 c-17 -44 -31
-83 -31 -86 0 -3 21 -5 47 -3 l46 3 104 275 c57 151 106 285 109 298 6 20 3
22 -39 22 l-45 0 -51 -139 c-28 -76 -51 -143 -51 -150 0 -38 -24 8 -71 139
l-54 150 -47 0 -48 0 19 -47z"/>
<path d="M7730 3228 c0 -160 10 -210 48 -251 48 -51 151 -59 207 -15 l25 19 0
-20 c0 -18 6 -21 45 -21 l45 0 0 215 0 215 -45 0 -45 0 0 -140 c0 -80 -5 -149
-11 -163 -23 -51 -104 -63 -144 -22 -28 27 -27 23 -31 185 -1 63 -3 121 -3
128 -1 8 -17 12 -46 12 l-45 0 0 -142z"/>
<path d="M5800 3185 l0 -45 195 0 195 0 0 45 0 45 -195 0 -195 0 0 -45z"/>
</g>
</svg>
